<?xml version="1.0" standalone="no"?>
<!DOCTYPE svg PUBLIC "-//W3C//DTD SVG 20010904//EN"
 "http://www.w3.org/TR/2001/REC-SVG-20010904/DTD/svg10.dtd">
<svg version="1.0" xmlns="http://www.w3.org/2000/svg"
 width="512.000000pt" height="250.000000pt" viewBox="0 0 512.000000 250.000000"
 preserveAspectRatio="xMidYMid meet">
<metadata>
Created by potrace 1.16, written by Peter Selinger 2001-2019
</metadata>
<g transform="translate(0.000000,250.000000) scale(0.100000,-0.100000)"
fill="#000000" stroke="none">
<path d="M351 2488 c5 -37 2 -38 -170 -38 -126 0 -171 3 -174 13 -3 6 -6 -5
-6 -26 -1 -25 3 -37 11 -36 37 5 38 2 38 -171 0 -173 -1 -176 -37 -171 -9 1
-13 -15 -13 -54 0 -39 4 -55 13 -54 36 5 37 2 37 -171 0 -173 -1 -176 -37
-171 -9 1 -13 -16 -13 -61 0 -46 3 -59 11 -51 6 6 18 9 25 6 11 -4 14 -38 14
-163 0 -87 -3 -165 -6 -174 -7 -19 -30 -21 -37 -3 -3 6 -6 -16 -6 -51 -1 -45
3 -62 12 -61 36 5 37 2 37 -171 0 -173 -1 -176 -37 -171 -9 1 -13 -15 -13 -54
0 -39 4 -55 13 -54 36 5 37 2 37 -171 0 -173 -1 -176 -38 -171 -8 1 -12 -15
-12 -54 0 -39 4 -55 12 -54 33 4 38 -2 38 -51 l0 -50 70 0 c69 0 75 -3 71 -38
-1 -8 15 -12 54 -12 39 0 55 4 54 13 -5 36 -2 37 171 37 173 0 176 -1 171 -37
-1 -9 15 -13 52 -13 49 0 54 2 53 23 l-1 22 175 0 175 0 -1 -22 c-1 -21 4 -23
52 -23 39 0 52 3 49 13 -13 33 9 38 181 35 168 -3 169 -3 168 -25 0 -13 5 -23
13 -23 9 0 11 8 7 24 -6 26 32 96 52 96 6 0 23 -9 37 -20 52 -41 91 -50 217
-50 97 0 122 -3 126 -15 5 -11 11 -12 25 -4 21 11 26 0 7 -19 -9 -9 -3 -12 28
-12 35 0 40 3 40 22 -1 18 7 23 39 30 21 5 50 18 62 30 l23 21 49 -26 c38 -21
63 -27 110 -27 46 0 63 -4 67 -15 5 -11 19 2 50 47 24 34 44 68 44 76 0 16 57
72 74 72 17 0 71 -108 68 -135 -2 -16 4 -27 18 -35 23 -12 163 -12 217 0 38 9
49 -1 34 -29 -9 -16 -7 -19 17 -23 23 -3 28 0 28 17 -1 19 4 20 174 20 169 0
175 -1 174 -20 0 -17 7 -20 51 -22 47 -2 51 0 51 20 -1 22 1 22 174 22 l175 0
-1 -22 c-1 -21 4 -23 52 -23 41 0 52 3 48 13 -12 31 21 38 187 35 163 -3 164
-3 163 -25 -1 -21 4 -23 51 -23 47 0 52 2 51 23 -1 22 0 22 172 25 176 3 178
2 173 -36 -1 -8 15 -12 54 -12 39 0 55 4 54 13 -5 36 -2 37 161 37 104 0 160
4 160 10 0 6 -6 10 -12 9 -37 -5 -38 -2 -38 171 0 173 1 176 38 171 8 -1 12
15 12 54 0 39 -4 55 -12 54 -37 -5 -38 -2 -38 171 0 173 1 176 38 171 8 -1 12
15 12 54 0 39 -4 55 -12 54 -38 -5 -39 -3 -36 169 3 166 3 167 26 166 20 -1
22 4 22 58 0 41 -4 58 -12 57 -37 -5 -38 -2 -38 171 0 173 1 176 38 171 8 -1
12 15 12 54 0 39 -4 55 -12 54 -37 -5 -38 -2 -38 171 0 173 1 176 38 171 8 -1
12 15 12 54 0 39 -4 55 -12 54 -35 -4 -38 2 -38 66 l0 65 -55 0 c-54 0 -60 4
-56 38 1 8 -15 12 -54 12 -39 0 -55 -4 -54 -12 5 -37 2 -38 -171 -38 -173 0
-176 1 -171 38 1 8 -15 12 -52 12 -49 0 -54 -2 -53 -22 l1 -23 -175 0 -175 0
1 23 c1 20 -4 22 -51 22 -47 0 -52 -2 -51 -22 l1 -23 -175 0 -175 0 1 23 c1
20 -4 22 -51 22 -47 0 -52 -2 -51 -22 l1 -23 -175 0 c-175 0 -175 0 -174 22 0
18 -2 20 -13 12 -9 -8 -13 -8 -13 0 0 6 -17 11 -38 11 -34 0 -38 -3 -38 -22
l1 -23 -175 0 c-175 0 -175 0 -174 22 0 18 -2 20 -13 11 -10 -8 -17 -8 -25 0
-7 7 -24 12 -39 12 -22 0 -26 -4 -22 -20 3 -12 0 -21 -8 -24 -56 -15 -98 -22
-93 -15 3 5 -50 8 -117 8 -109 -1 -124 1 -136 17 -8 11 -17 19 -21 19 -4 0 -6
3 -4 8 1 4 -15 7 -36 7 -34 0 -38 -3 -38 -22 1 -21 -5 -23 -64 -28 -66 -6 -90
-15 -168 -68 -45 -30 -88 -33 -78 -5 3 8 6 17 6 19 0 2 7 4 15 4 9 0 15 9 15
24 0 21 -5 25 -37 28 -32 3 -38 7 -37 26 1 20 -1 20 -26 -10 -24 -28 -30 -31
-44 -19 -9 7 -16 21 -17 30 0 11 -3 8 -9 -7 -9 -22 -11 -22 -182 -20 -172 3
-173 3 -172 26 1 20 -4 22 -51 22 -47 0 -52 -2 -51 -22 l1 -23 -175 0 -175 0
1 23 c1 20 -4 22 -53 22 -37 0 -53 -4 -52 -12 5 -37 2 -38 -171 -38 -173 0
-176 1 -171 38 1 8 -15 12 -54 12 -39 0 -55 -4 -54 -12z m3298 -84 c67 -19
121 -68 121 -110 0 -47 -40 -107 -78 -118 -27 -8 -42 -5 -79 13 -63 31 -129
37 -176 18 -31 -13 -37 -21 -37 -45 0 -36 30 -65 97 -91 166 -65 236 -121 272
-219 31 -83 27 -193 -11 -267 -34 -66 -59 -88 -148 -131 -48 -24 -210 -29
-278 -9 -63 19 -141 71 -163 110 -41 70 -12 152 61 174 40 12 44 11 81 -15 22
-15 43 -33 47 -39 14 -23 94 -42 140 -32 37 7 46 14 58 44 22 52 -4 96 -76
132 -30 15 -91 45 -134 67 -60 29 -89 51 -118 87 -46 59 -52 81 -53 172 0 93
35 170 97 213 99 67 238 84 377 46z m-1959 -15 c63 -30 122 -91 142 -146 10
-28 13 -111 13 -318 l0 -280 -30 -58 c-33 -65 -80 -104 -158 -131 -37 -12 -87
-16 -218 -16 l-171 0 -28 28 -28 29 0 423 c-1 469 0 471 61 489 17 6 106 9
197 8 154 -3 169 -4 220 -28z m684 1 c70 -33 103 -66 134 -129 27 -56 27 -57
30 -302 l3 -247 45 -12 c120 -34 161 -152 64 -181 -37 -11 -41 -10 -75 20 -54
47 -105 38 -105 -19 0 -25 15 -45 147 -190 l33 -35 0 27 c0 33 17 80 33 90 24
15 77 8 96 -13 36 -39 38 -44 31 -59 -4 -8 -15 -48 -25 -88 l-17 -74 31 -38
c17 -21 31 -44 31 -49 0 -6 7 -11 15 -11 8 0 31 -14 51 -32 35 -31 36 -34 30
-81 -4 -27 -19 -68 -34 -90 -14 -23 -37 -62 -49 -87 -35 -69 -72 -132 -87
-149 -29 -33 -28 -57 4 -104 16 -25 30 -52 30 -60 0 -8 4 -17 9 -19 8 -3 79
-122 120 -201 8 -15 16 -25 18 -23 3 2 4 176 4 386 0 210 5 393 10 407 17 46
57 53 316 53 l239 0 32 -29 c26 -24 32 -37 32 -71 0 -96 -31 -110 -239 -110
l-160 0 -3 -90 c-2 -54 1 -92 7 -94 6 -2 24 -1 42 2 18 2 57 1 88 -3 49 -6 59
-11 76 -38 29 -49 25 -93 -13 -128 -30 -27 -38 -29 -115 -29 l-83 0 0 -90 0
-90 28 -1 c15 0 88 -1 162 -1 74 0 143 -4 152 -9 14 -8 20 -3 32 24 31 75 106
89 172 34 56 -48 76 -57 134 -57 41 0 56 5 75 25 29 28 31 54 9 97 -12 23 -36
39 -102 69 -48 22 -94 44 -102 50 -8 5 -24 13 -36 18 -28 12 -84 61 -84 72 0
6 -9 19 -20 31 -41 44 -47 181 -12 258 26 56 72 100 137 131 44 21 64 24 175
24 110 0 131 -3 177 -24 54 -24 82 -55 85 -94 2 -28 -29 -97 -51 -114 -22 -17
-66 -16 -100 2 -73 37 -190 38 -213 1 -24 -37 17 -92 82 -111 23 -7 51 -20
135 -63 124 -64 182 -178 164 -325 -20 -167 -131 -257 -320 -259 -89 -1 -166
20 -232 62 l-48 30 -14 -34 c-10 -24 -24 -37 -47 -44 -19 -6 -129 -10 -263 -9
-253 2 -273 7 -297 65 -7 19 -12 23 -15 12 -18 -52 -109 -92 -161 -71 -30 13
-35 20 -89 119 -20 37 -44 81 -53 97 -9 17 -22 41 -29 54 -12 22 -16 18 -83
-105 -74 -137 -104 -174 -143 -174 -39 0 -102 30 -119 55 -32 49 -20 86 74
245 18 30 44 75 58 100 13 25 31 52 38 61 8 8 14 23 14 32 0 9 -43 91 -95 181
-56 97 -97 182 -101 205 -6 36 -3 44 24 71 17 16 37 30 46 30 12 0 10 7 -9 36
-58 85 -38 219 41 285 12 9 11 16 -2 39 -16 26 -18 26 -43 14 -38 -20 -142
-17 -208 6 -79 28 -123 65 -158 135 l-30 60 -3 258 c-3 278 3 327 50 396 31
46 97 91 155 107 73 21 209 12 267 -16z m778 18 c48 -40 60 -95 32 -153 -13
-28 -24 -35 -64 -45 -27 -6 -71 -10 -97 -8 l-48 3 -3 -354 c-3 -394 1 -373
-72 -406 -38 -17 -42 -17 -86 0 -72 27 -72 28 -70 420 l1 340 -87 0 c-98 1
-121 13 -137 72 -11 39 9 110 36 131 13 9 89 12 298 12 210 0 285 -3 297 -12z
m14 -486 c16 -20 24 -41 21 -53 -3 -10 -1 -22 4 -25 24 -14 5 -50 -53 -103
-34 -31 -66 -56 -71 -56 -5 0 -20 -13 -33 -30 l-24 -30 0 123 c0 107 3 128 22
165 21 40 22 41 28 17 l6 -25 7 24 c5 21 8 22 22 11 22 -18 29 -6 16 31 -15
43 -2 59 16 18 7 -18 25 -48 39 -67z m-11 -448 c14 -18 25 -39 25 -48 0 -8 14
-23 30 -33 17 -9 30 -22 30 -27 0 -5 9 -1 20 9 20 18 21 18 12 -6 -8 -20 -17
-24 -60 -27 -42 -2 -51 0 -56 16 -4 10 -17 24 -30 31 -28 16 -61 2 -71 -29 -5
-17 -15 -20 -60 -20 -48 0 -53 2 -59 24 -3 14 -18 29 -33 35 -27 10 -27 11 10
8 20 -2 37 0 37 3 0 4 11 12 23 17 16 8 28 26 37 57 12 45 35 75 47 63 3 -4
15 0 26 8 20 14 22 12 34 -17 8 -18 25 -47 38 -64z m-1233 10 c21 -15 38 -33
38 -42 0 -24 32 -40 67 -35 18 3 40 2 50 -3 10 -4 38 -13 63 -18 29 -7 46 -17
48 -29 3 -14 -5 -17 -52 -17 -40 0 -56 4 -56 13 0 8 -9 22 -20 32 -26 24 -68
13 -76 -20 -6 -23 -11 -25 -60 -25 -41 0 -54 4 -54 15 0 21 -42 45 -68 38 -12
-3 -25 -16 -28 -29 -6 -21 -12 -24 -58 -24 -43 0 -53 3 -61 22 -6 13 -21 28
-35 35 l-25 13 23 0 c13 0 33 -11 45 -24 l21 -24 41 28 c23 16 58 49 79 74 44
54 64 57 118 20z m-142 -338 c0 -21 48 -56 68 -50 9 2 7 -1 -5 -7 -16 -9 -30
-9 -45 -2 -19 8 -32 4 -75 -23 -29 -19 -53 -31 -53 -29 0 3 -9 1 -20 -5 -10
-6 -17 -16 -14 -24 3 -7 -2 -16 -11 -20 -13 -5 -15 -1 -10 15 5 15 4 19 -4 15
-6 -4 -23 6 -37 21 -14 15 -33 27 -40 25 -8 -2 -27 6 -43 18 -16 11 -34 20
-39 20 -6 0 -6 9 1 25 11 22 18 25 64 25 43 0 53 -3 58 -20 12 -38 82 -39 92
-1 5 19 22 25 91 29 13 1 22 -4 22 -12z m223 -22 c28 -36 72 -33 89 6 10 24
19 30 43 30 45 0 75 -11 75 -26 0 -7 9 -19 21 -27 20 -15 10 -35 -11 -22 -5 3
-10 2 -10 -4 0 -16 -76 -24 -101 -10 -13 7 -38 12 -56 11 -21 -1 -43 7 -63 25
-25 21 -38 25 -70 20 -28 -3 -40 -1 -40 7 0 21 9 24 58 19 34 -4 52 -12 65
-29z m-612 -58 c95 -29 141 -69 167 -145 26 -75 6 -226 -35 -273 -13 -15 -13
-19 7 -40 48 -51 55 -77 55 -198 0 -137 -11 -171 -69 -232 -68 -71 -114 -82
-329 -83 l-179 0 -28 32 -28 32 -1 421 c0 236 4 433 10 446 16 43 59 53 229
54 106 0 170 -5 201 -14z m700 -19 c56 -26 102 -70 131 -123 27 -49 37 -145
37 -354 0 -266 -16 -328 -102 -407 -60 -56 -134 -77 -247 -70 -101 5 -162 29
-218 85 -69 69 -77 108 -77 402 0 275 5 311 54 381 58 83 150 121 282 115 67
-2 98 -9 140 -29z m1377 -236 c8 -5 14 -33 16 -73 4 -74 10 -90 31 -82 10 4
18 -3 25 -21 5 -14 21 -41 35 -59 14 -18 25 -38 25 -43 0 -25 -93 -135 -125
-149 -37 -15 -155 -19 -155 -5 0 14 41 61 51 58 6 -1 33 40 61 91 l50 93 -23
44 c-21 39 -25 42 -39 30 -14 -12 -18 -12 -31 -1 -18 17 -74 36 -107 36 -17 0
-22 4 -19 14 3 8 1 16 -5 18 -18 6 0 38 21 38 11 0 23 5 26 10 7 12 144 13
163 1z m-587 -133 c1 -13 1 -29 0 -35 -1 -7 3 -13 9 -13 16 0 13 -142 -4 -165
-13 -18 -14 -18 -40 8 -26 27 -34 61 -16 72 15 9 12 25 -5 25 -21 0 -20 54 2
88 30 47 52 55 54 20z"/>
<path d="M1434 2194 c3 -9 6 -135 6 -280 l0 -264 75 0 c74 0 76 0 95 33 18 29
20 50 20 240 0 281 -3 287 -139 287 -53 0 -62 -2 -57 -16z"/>
<path d="M2168 2203 c-34 -9 -41 -57 -41 -284 0 -183 3 -223 16 -243 30 -46
124 -46 154 0 13 20 15 58 15 222 0 275 1 260 -27 287 -23 24 -68 31 -117 18z
m76 -224 c11 -106 8 -121 -30 -176 -20 -29 -41 -50 -46 -47 -7 4 -9 46 -6 108
4 85 8 107 29 138 13 21 29 38 35 38 6 0 14 -27 18 -61z"/>
<path d="M2665 1060 c-14 -23 -90 -50 -142 -50 -29 0 -53 -3 -53 -6 0 -4 15
-32 33 -63 18 -31 44 -77 58 -103 13 -26 27 -44 30 -40 4 4 20 32 35 62 15 30
43 79 61 108 l34 52 -24 26 c-18 19 -27 23 -32 14z"/>
<path d="M2311 1024 c-12 -8 -21 -23 -21 -32 0 -35 21 -88 45 -116 14 -16 25
-36 25 -45 0 -9 13 -32 30 -51 16 -19 29 -41 30 -49 0 -8 12 -29 26 -48 14
-19 27 -41 28 -48 1 -8 5 -18 9 -21 15 -15 6 -62 -17 -87 -13 -14 -29 -42 -36
-62 -6 -19 -15 -35 -19 -35 -4 0 -17 -18 -30 -40 -12 -22 -20 -40 -17 -40 3 0
-10 -21 -29 -46 -19 -25 -33 -49 -30 -54 3 -4 -2 -13 -10 -20 -36 -30 -6 -74
58 -85 31 -6 41 -4 52 11 8 11 15 27 15 36 0 9 6 21 14 25 8 4 26 31 40 58 85
166 108 206 120 202 4 -1 14 -20 21 -41 7 -21 22 -48 33 -59 11 -12 22 -33 25
-47 4 -14 15 -35 27 -47 11 -12 20 -26 20 -31 0 -17 52 -104 65 -108 7 -3 32
0 54 6 41 11 66 42 53 65 -3 5 -9 -1 -12 -15 -7 -29 -11 -24 -47 53 -12 26
-27 47 -33 47 -5 0 -10 7 -10 15 0 9 -12 34 -27 58 -16 23 -28 47 -28 53 0 5
-15 28 -32 50 -38 48 -55 101 -30 91 12 -4 16 -1 15 11 -2 25 13 82 22 82 11
0 50 68 50 86 0 8 6 17 14 20 7 3 22 24 32 47 10 23 31 61 47 84 l28 43 -21
30 c-12 16 -29 34 -38 40 -16 9 -16 9 1 10 9 0 26 -9 38 -21 23 -23 39 -18 19
6 -24 29 -45 35 -74 19 -16 -8 -34 -14 -42 -14 -7 0 -17 -12 -20 -27 -4 -16
-18 -41 -31 -56 -12 -16 -26 -41 -30 -55 -3 -15 -19 -44 -35 -66 -15 -21 -28
-45 -28 -53 0 -8 -7 -21 -15 -30 -13 -12 -18 -13 -31 -2 -13 11 -14 9 -8 -17
7 -26 6 -28 -10 -15 -9 8 -26 36 -38 63 -11 26 -24 48 -27 48 -4 0 -18 25 -30
55 -13 30 -27 55 -32 55 -5 0 -9 12 -9 26 0 14 4 23 10 19 17 -11 11 32 -7 53
-24 26 -84 35 -112 16z"/>
<path d="M3750 1019 c-14 -6 -28 -17 -33 -25 -4 -8 -16 -14 -26 -14 -20 0 -61
-40 -61 -58 0 -7 -7 -23 -15 -36 -22 -32 -14 -156 11 -194 10 -15 23 -36 29
-46 13 -23 142 -95 173 -96 12 0 22 -4 22 -9 0 -5 22 -18 48 -29 39 -17 54
-31 75 -71 30 -55 29 -81 -5 -138 -14 -23 -28 -33 -56 -38 -51 -8 -76 -24 -42
-26 15 -1 8 -5 -20 -10 -61 -12 -137 12 -181 57 -18 19 -39 34 -47 34 -7 0
-10 5 -7 10 3 6 1 10 -5 10 -17 0 -33 -46 -26 -73 8 -34 54 -87 74 -87 8 0 23
-7 33 -16 22 -20 140 -37 204 -29 64 8 115 24 115 36 0 5 8 12 18 16 26 9 62
45 62 61 0 9 6 23 14 31 8 9 17 34 21 56 6 38 5 39 -8 16 -13 -22 -14 -20 -14
32 0 31 -5 62 -10 69 -6 7 -13 25 -17 40 -6 28 -119 128 -143 128 -6 0 -33 11
-59 25 -26 14 -54 25 -63 25 -9 0 -35 18 -58 39 -33 29 -43 45 -43 69 0 24 4
30 15 26 11 -5 15 1 16 22 1 52 13 66 73 85 49 15 67 16 119 6 34 -6 74 -19
88 -30 22 -15 31 -17 48 -8 42 23 21 71 -47 103 -40 19 -64 22 -154 23 -59 0
-99 3 -88 7 11 4 20 10 20 13 0 8 -22 5 -50 -6z"/>
<path d="M2997 1014 c-4 -4 -7 -198 -7 -430 0 -393 1 -424 18 -433 9 -5 125
-8 257 -7 l240 1 -3 30 c-5 43 -19 55 -68 55 -54 0 -67 17 -17 23 l38 4 -43 1
c-28 1 -49 -4 -59 -13 -12 -13 -38 -15 -135 -13 l-120 3 0 126 c-1 169 0 171
118 171 66 0 94 4 111 17 26 19 30 62 8 81 -9 8 -15 9 -15 2 0 -6 5 -14 10
-17 6 -3 10 -15 10 -27 0 -20 -1 -19 -18 3 -17 20 -28 23 -116 25 -53 1 -100
5 -103 8 -8 7 -6 257 2 264 3 3 5 -9 5 -26 0 -18 5 -32 11 -32 7 0 10 16 8 43
l-4 42 170 -2 c102 -2 181 2 197 8 29 12 44 51 29 77 -9 14 -11 10 -12 -18 -1
-19 -3 -27 -6 -18 -11 41 -38 46 -271 44 -122 0 -223 3 -225 7 -1 5 -6 5 -10
1z"/>
<path d="M997 993 c-3 -16 -5 -206 -4 -424 2 -311 5 -399 15 -412 11 -13 40
-16 188 -15 96 0 177 5 180 9 3 5 14 9 26 9 26 0 78 31 78 47 0 7 9 17 19 22
10 6 24 25 30 42 15 42 13 48 -4 25 -8 -11 -15 -15 -15 -10 0 16 24 64 33 64
4 0 6 19 6 43 l-2 42 -7 -35 -6 -35 -8 40 c-4 22 -9 53 -11 68 -6 33 -60 104
-88 113 -14 4 -16 9 -8 17 8 8 19 5 41 -11 16 -12 32 -22 36 -22 13 0 -28 39
-47 45 -22 7 -26 25 -6 25 18 0 57 42 57 62 0 9 7 29 15 44 17 33 20 78 5 69
-5 -3 -11 -21 -11 -38 -1 -18 -5 0 -9 39 -5 60 -11 78 -38 112 -49 61 -124 81
-309 79 -77 -1 -139 1 -136 6 2 4 0 7 -6 7 -5 0 -12 -12 -14 -27z m333 -89 c8
-1 18 -3 21 -3 4 -1 16 -24 29 -52 19 -45 20 -55 9 -83 -16 -40 -49 -87 -57
-82 -4 2 -27 0 -52 -4 l-45 -7 45 -3 c44 -2 44 -2 15 -11 -27 -9 -173 -15
-180 -7 -8 10 -12 118 -4 118 5 0 9 -22 9 -50 l0 -50 48 2 47 1 -42 4 c-43 4
-43 4 -43 44 0 22 -4 48 -9 57 -13 27 -22 102 -12 102 6 0 12 -17 14 -37 2
-22 3 -16 2 14 l-2 52 46 4 c41 3 121 -1 161 -9z m48 -372 c17 -19 32 -40 33
-46 5 -106 0 -136 -32 -181 -21 -29 -38 -44 -48 -41 -9 3 -34 1 -56 -4 l-40
-9 48 2 c63 3 60 -9 -5 -17 -82 -9 -156 -7 -164 5 -9 15 -11 289 -2 289 4 0 9
-19 11 -42 3 -28 4 -22 3 17 l-1 60 40 5 c22 3 72 4 110 2 65 -4 72 -7 103
-40z"/>
<path d="M1178 827 c-3 -24 -3 -57 -1 -74 l5 -31 66 5 c37 2 70 7 75 10 19 12
27 56 17 88 -12 37 -30 45 -106 45 l-51 0 -5 -43z"/>
<path d="M1191 521 c-8 -5 -13 -41 -14 -109 -2 -115 -11 -106 93 -103 74 3
102 33 99 106 -3 63 -17 94 -43 100 -50 10 -123 13 -135 6z"/>
<path d="M1890 1031 c-22 -8 -19 -9 18 -10 23 -1 42 -5 42 -10 0 -5 -17 -7
-39 -4 -21 3 -48 0 -60 -7 -25 -13 -44 -4 -21 10 11 7 11 10 2 10 -17 0 -72
-29 -72 -38 0 -4 -13 -14 -28 -23 -56 -32 -65 -82 -68 -374 -2 -212 0 -264 12
-282 8 -12 14 -31 14 -41 0 -23 69 -91 99 -97 13 -2 29 -9 35 -14 22 -18 154
-22 193 -6 20 8 44 15 54 15 21 0 115 92 122 120 3 11 1 20 -4 20 -5 0 -9 -5
-9 -12 0 -6 -2 -9 -5 -6 -6 6 18 58 28 58 4 0 6 19 6 43 l-2 42 -7 -35 c-10
-49 -12 -22 -12 170 1 172 -10 299 -26 309 -5 3 -15 19 -23 36 -13 28 -60 61
-121 86 -30 12 -39 34 -10 25 9 -3 31 -8 47 -11 l30 -5 -32 15 c-40 18 -130
27 -163 16z m118 -137 c48 -25 51 -28 58 -78 4 -28 8 -139 9 -246 1 -181 -1
-199 -21 -247 -21 -49 -24 -52 -68 -58 -50 -8 -72 -24 -34 -26 13 -1 3 -5 -21
-10 -37 -7 -51 -5 -89 14 -66 33 -73 64 -73 310 0 184 4 234 20 247 3 3 16 26
28 51 20 43 26 47 70 57 69 14 67 14 121 -14z"/>
<path d="M1888 859 c-44 -17 -50 -58 -46 -302 3 -216 3 -219 27 -238 25 -21
75 -25 115 -9 41 15 48 61 44 297 -3 199 -4 214 -24 233 -24 25 -78 33 -116
19z m73 -79 c4 -14 7 -51 8 -83 1 -33 5 -56 10 -53 16 10 1 -226 -16 -252 -35
-56 -77 2 -68 93 8 83 6 209 -4 213 -4 1 -6 19 -4 40 7 66 59 96 74 42z"/>
</g>
</svg>
