<?xml version="1.0" standalone="no"?>
<!DOCTYPE svg PUBLIC "-//W3C//DTD SVG 20010904//EN"
 "http://www.w3.org/TR/2001/REC-SVG-20010904/DTD/svg10.dtd">
<svg version="1.0" xmlns="http://www.w3.org/2000/svg"
 width="300.000000pt" height="300.000000pt" viewBox="0 0 300.000000 300.000000"
 preserveAspectRatio="xMidYMid meet">
<metadata>
Created by potrace 1.16, written by Peter Selinger 2001-2019
</metadata>
<g transform="translate(0.000000,300.000000) scale(0.100000,-0.100000)"
fill="#000000" stroke="none">
<path d="M370 1715 l0 -1135 1133 2 1132 3 0 1130 0 1130 -1132 3 -1133 2 0
-1135z m1858 669 c86 -36 142 -119 142 -213 0 -57 -6 -73 -117 -293 l-118
-233 -79 -3 c-44 -2 -83 1 -87 5 -4 4 23 73 62 152 38 79 68 145 67 146 -2 1
-23 7 -48 14 -83 24 -160 127 -160 216 0 80 56 166 132 204 52 26 151 28 206
5z m-1188 -4 c0 -6 -29 -69 -65 -140 -36 -71 -65 -131 -65 -133 0 -3 21 -12
47 -22 104 -40 159 -125 151 -235 -5 -75 -42 -131 -113 -175 -42 -26 -58 -30
-119 -30 -137 1 -232 84 -243 214 -5 53 -2 63 67 201 40 80 94 187 122 237
l50 93 84 0 c50 0 84 -4 84 -10z m548 -277 l2 -282 43 -3 42 -3 3 -77 3 -78
-176 0 -175 0 0 80 0 80 50 0 50 0 0 205 0 205 -50 0 -50 0 0 80 0 81 128 -3
127 -3 3 -282z m-966 -1042 l3 -90 120 90 120 90 5 -90 5 -90 112 84 c62 47
117 85 122 85 6 0 11 -37 13 -84 l3 -85 119 90 120 89 460 -2 461 -3 3 -252 2
-253 -935 0 -935 0 0 255 0 255 100 0 99 0 3 -89z m1744 65 c2 -12 3 -124 2
-251 l-3 -230 -32 -3 -33 -3 0 255 0 255 30 -1 c22 -1 32 -7 36 -22z m134
-232 l0 -254 -50 0 -50 0 0 248 c0 137 2 251 5 254 3 2 25 5 50 5 l45 1 0
-254z m34 244 c5 -10 7 -10 12 0 3 6 12 12 20 12 12 0 14 -42 14 -254 l0 -254
-35 1 -35 1 0 253 c0 230 5 281 24 241z"/>
<path d="M2075 2245 c-19 -18 -25 -35 -25 -70 0 -85 75 -124 137 -71 23 20 28
32 28 69 0 87 -83 130 -140 72z"/>
<path d="M811 1934 c-32 -41 -28 -98 8 -135 33 -33 50 -35 91 -14 32 17 55 72
45 107 -21 69 -104 93 -144 42z"/>
<path d="M1073 480 c-104 -47 -122 -183 -34 -263 44 -40 94 -52 150 -37 54 14
67 32 46 64 -19 29 -23 30 -59 16 -31 -12 -82 4 -96 30 -18 34 -11 79 16 107
23 23 31 25 73 19 44 -6 50 -4 65 18 21 33 21 31 -18 50 -45 21 -91 20 -143
-4z"/>
<path d="M1740 477 c-54 -28 -80 -75 -80 -143 0 -159 207 -218 297 -84 50 73
18 191 -62 230 -54 26 -102 25 -155 -3z m135 -82 c50 -49 17 -135 -53 -135
-48 0 -82 32 -82 77 0 44 37 83 80 83 19 0 40 -9 55 -25z"/>
<path d="M362 338 l3 -153 38 -3 37 -3 0 60 0 60 58 3 57 3 3 38 3 37 -60 0
c-54 0 -61 2 -61 20 0 18 7 20 70 20 l70 0 0 35 0 35 -110 0 -111 0 3 -152z"/>
<path d="M676 341 c-42 -83 -76 -152 -76 -155 0 -3 19 -6 43 -6 l43 0 41 83
41 82 38 -82 39 -82 43 -1 c23 0 42 4 42 8 0 5 -31 75 -70 155 -55 115 -74
147 -89 147 -15 0 -37 -34 -95 -149z"/>
<path d="M1350 455 c0 -34 1 -35 40 -35 l40 0 0 -120 0 -120 40 0 40 0 0 120
0 120 40 0 c39 0 40 1 40 35 l0 35 -120 0 -120 0 0 -35z"/>
<path d="M2080 335 l0 -155 40 0 40 0 0 121 0 120 27 -3 c38 -4 45 -38 9 -38
-24 0 -26 -4 -26 -40 0 -25 11 -63 30 -100 30 -59 31 -60 71 -60 29 0 40 4 36
13 -3 6 -15 35 -27 64 l-22 52 21 27 c31 39 28 98 -5 129 -24 22 -36 25 -110
25 l-84 0 0 -155z"/>
<path d="M2362 483 c2 -5 25 -50 51 -100 39 -78 47 -102 47 -148 l0 -55 40 0
40 0 0 61 c0 53 6 71 45 145 25 46 45 88 45 94 0 5 -18 10 -40 10 -36 0 -41
-4 -66 -46 l-27 -47 -24 47 c-23 45 -25 46 -69 46 -25 0 -44 -3 -42 -7z"/>
</g>
</svg>
